# xmcd CD database file
# Copyright (C) 1995-1998 Ti Kan
#
# Track frame offsets:
#	151
#	20063
#	46121
#	57935
#	65445
#	77485
#	86722
#	103873
#	120212
#	133373
#	157486
#	168534
#	176795
#	187006
#	203963
#	216999
#	227219
#	244585
#	255753
#	264833
#
# Disc length: 3568 seconds
#
# Revision: 1
# Processed by: cddbd v1.4PL0 Copyright (c) Steve Scherf et al.
# Submitted via: CDex 1.30Release
#
DISCID=1f0dee14
DTITLE=Stefan Hrusca - Deschide usa, crestine
DYEAR=1900
DGENRE=Country
TTITLE0=Deschide usa, crestine
TTITLE1=O, ce veste minunata
TTITLE2=Zoriori de ziua
TTITLE3=Trei pastori
TTITLE4=Colindul cerbului
TTITLE5=Florile dalbe
TTITLE6=Linu-i lin
TTITLE7=Crestinilor, noi astazi
TTITLE8=Ce-ati vazut, pastori?
TTITLE9=Coborat-o, coborat
TTITLE10=Aseara pe inserate
TTITLE11=Cand fost-a micut prunc Iisus
TTITLE12=Afara ninge linistit
TTITLE13=Sculati, gazde!
TTITLE14=Pom inramuratu
TTITLE15=La savarsitul lumii
TTITLE16=Pe strada din Viflaem
TTITLE17=Vita verde, iadara
TTITLE18=Nasterea Ta
TTITLE19=Urare
EXTD=ID3G:   2
EXTT0=
EXTT1=
EXTT2=
EXTT3=
EXTT4=
EXTT5=
EXTT6=
EXTT7=
EXTT8=
EXTT9=
EXTT10=
EXTT11=
EXTT12=
EXTT13=
EXTT14=
EXTT15=
EXTT16=
EXTT17=
EXTT18=
EXTT19=
PLAYORDER=
